NFP 09-10-14.ufo
<glyph name="A" format="1">
  <advance width="570"/>
  <unicode hex="0041"/>
  <outline>
    <contour>
      <point x="585" y="0" type="line"/>
      <point x="480" y="0" type="line"/>
      <point x="238" y="685" type="line"/>
      <point x="340" y="685" type="line"/>
    </contour>
    <contour>
      <point x="455" y="169" type="line"/>
      <point x="131" y="169" type="line"/>
      <point x="131" y="268" type="line"/>
      <point x="455" y="268" type="line"/>
    </contour>
    <contour>
      <point x="-15" y="0" type="line"/>
      <point x="230" y="685" type="line"/>
      <point x="332" y="685" type="line"/>
      <point x="90" y="0" type="line"/>
    </contour>
  </outline>
</glyph>
<glyph name="B" format="1">
  <advance width="571"/>
  <unicode hex="0042"/>
  <outline>
    <contour>
      <point x="373" y="459"/>
      <point x="337" y="426"/>
      <point x="293" y="426" type="curve" smooth="yes"/>
      <point x="75" y="426" type="line"/>
      <point x="75" y="340" type="line"/>
      <point x="270" y="340" type="line" smooth="yes"/>
      <point x="400" y="340"/>
      <point x="472" y="416"/>
      <point x="472" y="510" type="curve" smooth="yes"/>
      <point x="472" y="611"/>
      <point x="395" y="685"/>
      <point x="296" y="685" type="curve" smooth="yes"/>
      <point x="75" y="685" type="line"/>
      <point x="75" y="586" type="line"/>
      <point x="307" y="586" type="line" smooth="yes"/>
      <point x="346" y="586"/>
      <point x="373" y="551"/>
      <point x="373" y="505" type="curve" smooth="yes"/>
    </contour>
    <contour>
      <point x="55" y="0" type="line"/>
      <point x="157" y="0" type="line"/>
      <point x="157" y="685" type="line"/>
      <point x="55" y="685" type="line"/>
    </contour>
    <contour>
      <point x="428" y="132"/>
      <point x="364" y="99"/>
      <point x="286" y="99" type="curve" smooth="yes"/>
      <point x="55" y="99" type="line"/>
      <point x="55" y="0" type="line"/>
      <point x="279" y="0" type="line" smooth="yes"/>
      <point x="445" y="0"/>
      <point x="536" y="70"/>
      <point x="536" y="206" type="curve" smooth="yes"/>
      <point x="536" y="352"/>
      <point x="432" y="425"/>
      <point x="295" y="425" type="curve" smooth="yes"/>
      <point x="55" y="425" type="line"/>
      <point x="55" y="326" type="line"/>
      <point x="297" y="326" type="line" smooth="yes"/>
      <point x="374" y="326"/>
      <point x="428" y="288"/>
      <point x="428" y="206" type="curve" smooth="yes"/>
    </contour>
  </outline>
</glyph>
<glyph name="D" format="1">
  <advance width="605"/>
  <unicode hex="0044"/>
  <outline>
    <contour>
      <point x="55" y="0" type="line"/>
      <point x="55" y="685" type="line"/>
      <point x="157" y="685" type="line"/>
      <point x="157" y="0" type="line"/>
    </contour>
    <contour>
      <point x="404" y="99"/>
      <point x="473" y="194"/>
      <point x="473" y="343" type="curve" smooth="yes"/>
      <point x="473" y="486"/>
      <point x="405" y="587"/>
      <point x="205" y="587" type="curve" smooth="yes"/>
      <point x="55" y="587" type="line"/>
      <point x="55" y="686" type="line"/>
      <point x="237" y="686" type="line" smooth="yes"/>
      <point x="441" y="686"/>
      <point x="575" y="542"/>
      <point x="575" y="343" type="curve" smooth="yes"/>
      <point x="575" y="144"/>
      <point x="450" y="0"/>
      <point x="253" y="0" type="curve" smooth="yes"/>
      <point x="55" y="0" type="line"/>
      <point x="55" y="99" type="line"/>
      <point x="215" y="99" type="line" smooth="yes"/>
    </contour>
  </outline>
</glyph>
<glyph name="J" format="1">
  <advance width="452"/>
  <unicode hex="004A"/>
  <outline>
    <contour>
      <point x="261" y="88"/>
      <point x="295" y="124"/>
      <point x="295" y="177" type="curve" smooth="yes"/>
      <point x="295" y="685" type="line"/>
      <point x="397" y="685" type="line"/>
      <point x="397" y="187" type="line" smooth="yes"/>
      <point x="397" y="47"/>
      <point x="315" y="-11"/>
      <point x="204" y="-11" type="curve"/>
      <point x="95" y="-11"/>
      <point x="24" y="72"/>
      <point x="30" y="167" type="curve"/>
      <point x="130" y="189" type="line"/>
      <point x="126" y="133"/>
      <point x="161" y="88"/>
      <point x="211" y="88" type="curve"/>
    </contour>
  </outline>
</glyph>
<glyph name="K" format="1">
  <advance width="623"/>
  <unicode hex="004B"/>
  <outline>
    <contour>
      <point x="514" y="685" type="line"/>
      <point x="635" y="685" type="line"/>
      <point x="131" y="114" type="line"/>
      <point x="58" y="168" type="line"/>
    </contour>
    <contour>
      <point x="532" y="0" type="line"/>
      <point x="281" y="369" type="line"/>
      <point x="357" y="430" type="line"/>
      <point x="649" y="0" type="line"/>
    </contour>
    <component base="I"/>
  </outline>
</glyph>
<glyph name="L" format="1">
  <advance width="508"/>
  <unicode hex="004C"/>
  <outline>
    <contour>
      <point x="478" y="0" type="line"/>
      <point x="55" y="0" type="line"/>
      <point x="55" y="99" type="line"/>
      <point x="478" y="99" type="line"/>
    </contour>
    <contour>
      <point x="55" y="0" type="line"/>
      <point x="55" y="685" type="line"/>
      <point x="157" y="685" type="line"/>
      <point x="157" y="0" type="line"/>
    </contour>
  </outline>
</glyph>
<glyph name="Q" format="1">
  <advance width="748"/>
  <unicode hex="0051"/>
  <outline>
    <contour>
      <point x="587" y="-11" type="line"/>
      <point x="364" y="246" type="line"/>
      <point x="477" y="246" type="line"/>
      <point x="697" y="-11" type="line"/>
    </contour>
    <component base="O"/>
  </outline>
</glyph>
<glyph name="T" format="1">
  <advance width="525"/>
  <unicode hex="0054"/>
  <outline>
    <contour>
      <point x="535" y="586" type="line"/>
      <point x="-10" y="586" type="line"/>
      <point x="-10" y="685" type="line"/>
      <point x="535" y="685" type="line"/>
    </contour>
    <contour>
      <point x="211" y="0" type="line"/>
      <point x="211" y="685" type="line"/>
      <point x="313" y="685" type="line"/>
      <point x="313" y="0" type="line"/>
    </contour>
  </outline>
</glyph>
<glyph name="V" format="1">
  <advance width="570"/>
  <unicode hex="0056"/>
  <outline>
    <contour>
      <point x="585" y="685" type="line"/>
      <point x="340" y="0" type="line"/>
      <point x="235" y="0" type="line"/>
      <point x="477" y="685" type="line"/>
    </contour>
    <contour>
      <point x="-15" y="685" type="line"/>
      <point x="93" y="685" type="line"/>
      <point x="335" y="0" type="line"/>
      <point x="230" y="0" type="line"/>
    </contour>
  </outline>
</glyph>
<glyph name="W" format="1">
  <advance width="896"/>
  <unicode hex="0057"/>
  <outline>
    <contour>
      <point x="911" y="685" type="line"/>
      <point x="696" y="0" type="line"/>
      <point x="597" y="0" type="line"/>
      <point x="809" y="685" type="line"/>
    </contour>
    <contour>
      <point x="397" y="685" type="line"/>
      <point x="499" y="685" type="line"/>
      <point x="696" y="0" type="line"/>
      <point x="597" y="0" type="line"/>
    </contour>
    <contour>
      <point x="499" y="685" type="line"/>
      <point x="298" y="0" type="line"/>
      <point x="199" y="0" type="line"/>
      <point x="397" y="685" type="line"/>
    </contour>
    <contour>
      <point x="-15" y="685" type="line"/>
      <point x="87" y="685" type="line"/>
      <point x="298" y="0" type="line"/>
      <point x="199" y="0" type="line"/>
    </contour>
  </outline>
</glyph>
<glyph name="X" format="1">
  <advance width="548"/>
  <unicode hex="0058"/>
  <outline>
    <contour>
      <point x="547" y="685" type="line"/>
      <point x="93" y="0" type="line"/>
      <point x="-15" y="0" type="line"/>
      <point x="439" y="685" type="line"/>
    </contour>
    <contour>
      <point x="-6" y="685" type="line"/>
      <point x="102" y="685" type="line"/>
      <point x="564" y="0" type="line"/>
      <point x="456" y="0" type="line"/>
    </contour>
  </outline>
</glyph>
<glyph name="Y" format="1">
  <advance width="537"/>
  <unicode hex="0059"/>
  <outline>
    <contour>
      <point x="552" y="685" type="line"/>
      <point x="317" y="264" type="line"/>
      <point x="218" y="264" type="line"/>
      <point x="448" y="685" type="line"/>
    </contour>
    <contour>
      <point x="-15" y="685" type="line"/>
      <point x="90" y="685" type="line"/>
      <point x="317" y="264" type="line"/>
      <point x="218" y="264" type="line"/>
    </contour>
    <contour>
      <point x="218" y="0" type="line"/>
      <point x="218" y="264" type="line"/>
      <point x="317" y="264" type="line"/>
      <point x="317" y="0" type="line"/>
    </contour>
  </outline>
</glyph>
<glyph name="e" format="1">
  <advance width="518"/>
  <unicode hex="0065"/>
  <outline>
    <contour>
      <point x="85" y="304" type="line"/>
      <point x="427" y="304" type="line"/>
      <point x="427" y="222" type="line"/>
      <point x="85" y="222" type="line"/>
    </contour>
    <contour>
      <point x="380" y="222" type="line"/>
      <point x="380" y="334"/>
      <point x="356" y="421"/>
      <point x="252" y="421" type="curve" smooth="yes"/>
      <point x="167" y="421"/>
      <point x="127" y="356"/>
      <point x="127" y="248" type="curve" smooth="yes"/>
      <point x="127" y="153"/>
      <point x="172" y="80"/>
      <point x="268" y="80" type="curve"/>
      <point x="322" y="81"/>
      <point x="367" y="115"/>
      <point x="387" y="162" type="curve"/>
      <point x="471" y="125" type="line"/>
      <point x="442" y="39"/>
      <point x="351" y="-10"/>
      <point x="263" y="-10" type="curve"/>
      <point x="137" y="-10"/>
      <point x="30" y="66"/>
      <point x="30" y="248" type="curve"/>
      <point x="30" y="419"/>
      <point x="126" y="510"/>
      <point x="252" y="510" type="curve" smooth="yes"/>
      <point x="386" y="510"/>
      <point x="480" y="443"/>
      <point x="480" y="222" type="curve"/>
    </contour>
  </outline>
</glyph>
<glyph name="j" format="1">
  <advance width="212"/>
  <unicode hex="006A"/>
  <outline>
    <contour>
      <point x="55" y="500" type="line"/>
      <point x="157" y="500" type="line"/>
      <point x="157" y="-45" type="line" smooth="yes"/>
      <point x="157" y="-128"/>
      <point x="99" y="-179"/>
      <point x="-13" y="-143" type="curve"/>
      <point x="-8" y="-51" type="line"/>
      <point x="36" y="-63"/>
      <point x="55" y="-50"/>
      <point x="55" y="-16" type="curve" smooth="yes"/>
    </contour>
    <contour>
      <point x="55" y="570" type="line"/>
      <point x="55" y="685" type="line"/>
      <point x="157" y="685" type="line"/>
      <point x="157" y="570" type="line"/>
    </contour>
  </outline>
</glyph>
<glyph name="n" format="1">
  <advance width="530"/>
  <unicode hex="006E"/>
  <outline>
    <contour>
      <point x="373" y="0" type="line"/>
      <point x="373" y="333" type="line" smooth="yes"/>
      <point x="373" y="378"/>
      <point x="343" y="415"/>
      <point x="285" y="415" type="curve" smooth="yes"/>
      <point x="220" y="415"/>
      <point x="157" y="372"/>
      <point x="157" y="284" type="curve"/>
      <point x="103" y="284" type="line"/>
      <point x="103" y="440"/>
      <point x="216" y="510"/>
      <point x="303" y="510" type="curve"/>
      <point x="409" y="510"/>
      <point x="475" y="438"/>
      <point x="475" y="359" type="curve" smooth="yes"/>
      <point x="475" y="0" type="line"/>
    </contour>
    <contour>
      <point x="55" y="0" type="line"/>
      <point x="55" y="500" type="line"/>
      <point x="157" y="500" type="line"/>
      <point x="157" y="0" type="line"/>
    </contour>
  </outline>
</glyph>
<glyph name="o" format="1">
  <advance width="538"/>
  <unicode hex="006F"/>
  <outline>
    <contour>
      <point x="269" y="85" type="curve"/>
      <point x="359" y="85"/>
      <point x="409" y="148"/>
      <point x="409" y="249" type="curve" smooth="yes"/>
      <point x="409" y="352"/>
      <point x="359" y="415"/>
      <point x="269" y="415" type="curve"/>
      <point x="179" y="415"/>
      <point x="129" y="352"/>
      <point x="129" y="249" type="curve" smooth="yes"/>
      <point x="129" y="148"/>
      <point x="179" y="85"/>
    </contour>
    <contour>
      <point x="269" y="-10" type="curve" smooth="yes"/>
      <point x="132" y="-10"/>
      <point x="25" y="88"/>
      <point x="25" y="249" type="curve" smooth="yes"/>
      <point x="25" y="410"/>
      <point x="137" y="510"/>
      <point x="269" y="510" type="curve" smooth="yes"/>
      <point x="401" y="510"/>
      <point x="513" y="410"/>
      <point x="513" y="249" type="curve" smooth="yes"/>
      <point x="513" y="88"/>
      <point x="406" y="-10"/>
    </contour>
  </outline>
</glyph>
<glyph name="s" format="1">
  <advance width="466"/>
  <unicode hex="0073"/>
  <outline>
    <contour>
      <point x="362" y="356" type="line"/>
      <point x="335" y="398"/>
      <point x="297" y="419"/>
      <point x="232" y="419" type="curve" smooth="yes"/>
      <point x="178" y="419"/>
      <point x="144" y="399"/>
      <point x="144" y="366" type="curve" smooth="yes"/>
      <point x="144" y="339"/>
      <point x="158" y="320"/>
      <point x="187" y="314" type="curve" smooth="yes"/>
      <point x="289" y="292" type="line" smooth="yes"/>
      <point x="359" y="277"/>
      <point x="441" y="238"/>
      <point x="441" y="146" type="curve"/>
      <point x="441" y="67"/>
      <point x="356" y="-5"/>
      <point x="241" y="-5" type="curve" smooth="yes"/>
      <point x="148" y="-5"/>
      <point x="52" y="40"/>
      <point x="25" y="107" type="curve"/>
      <point x="98" y="163" type="line"/>
      <point x="121" y="117"/>
      <point x="178" y="81"/>
      <point x="244" y="81" type="curve"/>
      <point x="297" y="81"/>
      <point x="340" y="97"/>
      <point x="340" y="138" type="curve"/>
      <point x="340" y="175"/>
      <point x="314" y="197"/>
      <point x="277" y="204" type="curve" smooth="yes"/>
      <point x="171" y="227" type="line" smooth="yes"/>
      <point x="112" y="240"/>
      <point x="52" y="280"/>
      <point x="52" y="367" type="curve"/>
      <point x="52" y="445"/>
      <point x="128" y="505"/>
      <point x="232" y="505" type="curve" smooth="yes"/>
      <point x="330" y="505"/>
      <point x="392" y="471"/>
      <point x="428" y="412" type="curve"/>
    </contour>
  </outline>
</glyph>
<glyph name="t" format="1">
  <advance width="332"/>
  <unicode hex="0074"/>
  <outline>
    <contour>
      <point x="201" y="612" type="line"/>
      <point x="201" y="125" type="line" smooth="yes"/>
      <point x="201" y="89"/>
      <point x="243" y="73"/>
      <point x="297" y="92" type="curve"/>
      <point x="302" y="6" type="line"/>
      <point x="170.0" y="-30.7378640777"/>
      <point x="99" y="20"/>
      <point x="99" y="94" type="curve" smooth="yes"/>
      <point x="99" y="612" type="line"/>
    </contour>
    <contour>
      <point x="15" y="500" type="line"/>
      <point x="299" y="500" type="line"/>
      <point x="299" y="418" type="line"/>
      <point x="15" y="418" type="line"/>
    </contour>
  </outline>
</glyph>
<glyph name="w" format="1">
  <advance width="714"/>
  <unicode hex="0077"/>
  <outline>
    <contour>
      <point x="257" y="0" type="line"/>
      <point x="160" y="0" type="line"/>
      <point x="311" y="500" type="line"/>
      <point x="398" y="500" type="line"/>
    </contour>
    <contour>
      <point x="155" y="0" type="line"/>
      <point x="10" y="500" type="line"/>
      <point x="105" y="500" type="line"/>
      <point x="250" y="0" type="line"/>
    </contour>
    <contour>
      <point x="568" y="0" type="line"/>
      <point x="473" y="0" type="line"/>
      <point x="609" y="500" type="line"/>
      <point x="704" y="500" type="line"/>
    </contour>
    <contour>
      <point x="466" y="0" type="line"/>
      <point x="316" y="500" type="line"/>
      <point x="403" y="500" type="line"/>
      <point x="563" y="0" type="line"/>
    </contour>
  </outline>
</glyph>
<glyph name="exclamdown" format="1">
  <advance width="212"/>
  <unicode hex="00A1"/>
  <outline>
    <contour>
      <point x="58" y="244" type="line"/>
      <point x="55" y="0" type="line"/>
      <point x="157" y="0" type="line"/>
      <point x="154" y="244" type="line"/>
      <point x="147" y="500" type="line"/>
      <point x="65" y="500" type="line"/>
    </contour>
    <contour>
      <point x="55" y="570" type="line"/>
      <point x="157" y="570" type="line"/>
      <point x="157" y="685" type="line"/>
      <point x="55" y="685" type="line"/>
    </contour>
  </outline>
</glyph>
<glyph name="registered" format="1">
  <advance width="323"/>
  <unicode hex="00AE"/>
  <outline>
    <contour>
      <point x="159" y="693" type="curve" smooth="yes"/>
      <point x="111" y="693"/>
      <point x="70" y="652"/>
      <point x="70" y="603" type="curve" smooth="yes"/>
      <point x="70" y="554"/>
      <point x="111" y="514"/>
      <point x="159" y="514" type="curve" smooth="yes"/>
      <point x="208" y="514"/>
      <point x="249" y="554"/>
      <point x="249" y="603" type="curve" smooth="yes"/>
      <point x="249" y="652"/>
      <point x="208" y="693"/>
    </contour>
    <contour>
      <point x="159" y="723" type="curve" smooth="yes"/>
      <point x="225" y="723"/>
      <point x="280" y="669"/>
      <point x="280" y="603" type="curve" smooth="yes"/>
      <point x="280" y="537"/>
      <point x="225" y="483"/>
      <point x="159" y="483" type="curve" smooth="yes"/>
      <point x="94" y="483"/>
      <point x="39" y="537"/>
      <point x="39" y="603" type="curve" smooth="yes"/>
      <point x="39" y="669"/>
      <point x="94" y="723"/>
    </contour>
    <component base="R" xScale="0.159490715967" yScale="0.159490715967" xOffset="117" yOffset="551"/>
  </outline>
</glyph>
<glyph name="AE" format="1">
  <advance width="914"/>
  <unicode hex="00C6"/>
  <outline>
    <contour>
      <point x="497" y="169" type="line"/>
      <point x="173" y="169" type="line"/>
      <point x="173" y="268" type="line"/>
      <point x="497" y="268" type="line"/>
    </contour>
    <contour>
      <point x="-15" y="0" type="line"/>
      <point x="383" y="685" type="line"/>
      <point x="485" y="685" type="line"/>
      <point x="90" y="0" type="line"/>
    </contour>
    <component base="E" xOffset="341"/>
  </outline>
</glyph>
<glyph name="Ccedilla" format="1">
  <advance width="676"/>
  <unicode hex="00C7"/>
  <outline>
    <contour>
      <point x="361" y="3" type="line"/>
      <point x="305" y="-76" type="line"/>
      <point x="278" y="-73" type="line"/>
      <point x="311" y="-58"/>
      <point x="336" y="-40"/>
      <point x="371" y="-40" type="curve" smooth="yes"/>
      <point x="433" y="-40"/>
      <point x="496" y="-71"/>
      <point x="496" y="-153" type="curve" smooth="yes"/>
      <point x="496" y="-210"/>
      <point x="449" y="-274"/>
      <point x="355" y="-274" type="curve" smooth="yes"/>
      <point x="310" y="-274"/>
      <point x="229" y="-253"/>
      <point x="216" y="-193" type="curve"/>
      <point x="280" y="-158" type="line"/>
      <point x="295" y="-193"/>
      <point x="330" y="-200"/>
      <point x="356" y="-200" type="curve" smooth="yes"/>
      <point x="390" y="-200"/>
      <point x="417" y="-182"/>
      <point x="417" y="-153" type="curve" smooth="yes"/>
      <point x="417" y="-121"/>
      <point x="390" y="-103"/>
      <point x="360" y="-103" type="curve" smooth="yes"/>
      <point x="339" y="-103"/>
      <point x="316" y="-111"/>
      <point x="305" y="-121" type="curve" smooth="yes"/>
      <point x="304" y="-121" type="line"/>
      <point x="230" y="-63" type="line"/>
      <point x="328" y="22" type="line"/>
    </contour>
    <component base="C"/>
  </outline>
</glyph>
<glyph name="ae" format="1">
  <advance width="886"/>
  <unicode hex="00E6"/>
  <outline>
    <contour>
      <point x="42" y="383" type="line"/>
      <point x="97" y="476"/>
      <point x="170" y="505"/>
      <point x="265" y="505" type="curve" smooth="yes"/>
      <point x="375" y="505"/>
      <point x="478" y="460"/>
      <point x="472" y="320" type="curve"/>
      <point x="467" y="138" type="line"/>
      <point x="374" y="246" type="line"/>
      <point x="376" y="324" type="line" smooth="yes"/>
      <point x="378" y="396"/>
      <point x="318" y="418"/>
      <point x="259" y="418" type="curve"/>
      <point x="199" y="418"/>
      <point x="151" y="398"/>
      <point x="115" y="347" type="curve"/>
    </contour>
    <contour>
      <point x="413" y="227" type="line"/>
      <point x="324" y="235"/>
      <point x="130" y="237"/>
      <point x="130" y="145" type="curve" smooth="yes"/>
      <point x="130" y="99"/>
      <point x="159" y="71"/>
      <point x="201" y="71" type="curve" smooth="yes"/>
      <point x="281" y="71"/>
      <point x="371" y="133"/>
      <point x="394" y="241" type="curve"/>
      <point x="453" y="218" type="line"/>
      <point x="449" y="96"/>
      <point x="342" y="-13"/>
      <point x="201" y="-13" type="curve" smooth="yes"/>
      <point x="111" y="-13"/>
      <point x="25" y="27"/>
      <point x="25" y="141" type="curve" smooth="yes"/>
      <point x="25" y="278"/>
      <point x="232" y="321"/>
      <point x="421" y="303" type="curve"/>
    </contour>
    <contour>
      <point x="445" y="304" type="line"/>
      <point x="787" y="304" type="line"/>
      <point x="787" y="222" type="line"/>
      <point x="445" y="222" type="line"/>
    </contour>
    <contour>
      <point x="740" y="222" type="line"/>
      <point x="740" y="334"/>
      <point x="716" y="431"/>
      <point x="612" y="431" type="curve" smooth="yes"/>
      <point x="527" y="431"/>
      <point x="485" y="356"/>
      <point x="485" y="248" type="curve" smooth="yes"/>
      <point x="485" y="153"/>
      <point x="532" y="72"/>
      <point x="631" y="72" type="curve" smooth="yes"/>
      <point x="690" y="73"/>
      <point x="741" y="116"/>
      <point x="764" y="162" type="curve"/>
      <point x="848" y="125" type="line"/>
      <point x="813" y="39"/>
      <point x="716" y="-9"/>
      <point x="631" y="-10" type="curve" smooth="yes"/>
      <point x="494" y="-12"/>
      <point x="390" y="66"/>
      <point x="390" y="248" type="curve"/>
      <point x="390" y="419"/>
      <point x="486" y="510"/>
      <point x="612" y="510" type="curve" smooth="yes"/>
      <point x="746" y="510"/>
      <point x="842" y="443"/>
      <point x="842" y="222" type="curve"/>
    </contour>
  </outline>
</glyph>
<glyph name="Scedilla" format="1">
  <advance width="601"/>
  <unicode hex="015E"/>
  <outline>
    <contour>
      <point x="312" y="3" type="line"/>
      <point x="256" y="-76" type="line"/>
      <point x="229" y="-73" type="line"/>
      <point x="262" y="-58"/>
      <point x="287" y="-40"/>
      <point x="322" y="-40" type="curve" smooth="yes"/>
      <point x="384" y="-40"/>
      <point x="447" y="-71"/>
      <point x="447" y="-153" type="curve" smooth="yes"/>
      <point x="447" y="-210"/>
      <point x="400" y="-274"/>
      <point x="306" y="-274" type="curve" smooth="yes"/>
      <point x="261" y="-274"/>
      <point x="180" y="-253"/>
      <point x="167" y="-193" type="curve"/>
      <point x="231" y="-158" type="line"/>
      <point x="246" y="-193"/>
      <point x="281" y="-200"/>
      <point x="307" y="-200" type="curve" smooth="yes"/>
      <point x="341" y="-200"/>
      <point x="368" y="-182"/>
      <point x="368" y="-153" type="curve" smooth="yes"/>
      <point x="368" y="-121"/>
      <point x="341" y="-103"/>
      <point x="311" y="-103" type="curve" smooth="yes"/>
      <point x="290" y="-103"/>
      <point x="267" y="-111"/>
      <point x="256" y="-121" type="curve" smooth="yes"/>
      <point x="255" y="-121" type="line"/>
      <point x="181" y="-63" type="line"/>
      <point x="279" y="22" type="line"/>
    </contour>
    <component base="S"/>
  </outline>
</glyph>
<glyph name="scedilla" format="1">
  <advance width="466"/>
  <unicode hex="015F"/>
  <outline>
    <contour>
      <point x="247" y="3" type="line"/>
      <point x="191" y="-76" type="line"/>
      <point x="164" y="-73" type="line"/>
      <point x="197" y="-58"/>
      <point x="222" y="-40"/>
      <point x="257" y="-40" type="curve" smooth="yes"/>
      <point x="319" y="-40"/>
      <point x="382" y="-71"/>
      <point x="382" y="-153" type="curve" smooth="yes"/>
      <point x="382" y="-210"/>
      <point x="335" y="-274"/>
      <point x="241" y="-274" type="curve" smooth="yes"/>
      <point x="196" y="-274"/>
      <point x="115" y="-253"/>
      <point x="102" y="-193" type="curve"/>
      <point x="166" y="-158" type="line"/>
      <point x="181" y="-193"/>
      <point x="216" y="-200"/>
      <point x="242" y="-200" type="curve" smooth="yes"/>
      <point x="276" y="-200"/>
      <point x="303" y="-182"/>
      <point x="303" y="-153" type="curve" smooth="yes"/>
      <point x="303" y="-121"/>
      <point x="276" y="-103"/>
      <point x="246" y="-103" type="curve" smooth="yes"/>
      <point x="225" y="-103"/>
      <point x="202" y="-111"/>
      <point x="191" y="-121" type="curve" smooth="yes"/>
      <point x="190" y="-121" type="line"/>
      <point x="116" y="-63" type="line"/>
      <point x="214" y="22" type="line"/>
    </contour>
    <component base="s"/>
  </outline>
</glyph>
<glyph name="v_a" format="1">
  <advance width="796"/>
  <unicode hex="0905"/>
  <outline>
    <contour>
      <point x="258" y="336" type="curve"/>
      <point x="236" y="409" type="line"/>
      <point x="390" y="409"/>
      <point x="503" y="313"/>
      <point x="503" y="209" type="curve"/>
      <point x="503" y="62"/>
      <point x="403" y="-6"/>
      <point x="267" y="-6" type="curve" smooth="yes"/>
      <point x="86" y="-6"/>
      <point x="14" y="133"/>
      <point x="-17" y="254" type="curve"/>
      <point x="64" y="290" type="line"/>
      <point x="92" y="171"/>
      <point x="152" y="76"/>
      <point x="275" y="76" type="curve" smooth="yes"/>
      <point x="360" y="76"/>
      <point x="412" y="130"/>
      <point x="412" y="205" type="curve"/>
      <point x="412" y="275"/>
      <point x="361" y="356"/>
    </contour>
    <contour>
      <point x="236" y="409" type="line"/>
      <point x="327" y="428"/>
      <point x="380" y="445"/>
      <point x="380" y="519" type="curve" smooth="yes"/>
      <point x="380" y="562"/>
      <point x="348" y="603"/>
      <point x="293" y="603" type="curve" smooth="yes"/>
      <point x="245" y="603"/>
      <point x="207" y="579"/>
      <point x="198" y="533" type="curve"/>
      <point x="122" y="566" type="line"/>
      <point x="135" y="647"/>
      <point x="216" y="684"/>
      <point x="286" y="685" type="curve" smooth="yes"/>
      <point x="389" y="687"/>
      <point x="460" y="617"/>
      <point x="468" y="527" type="curve"/>
      <point x="468" y="409"/>
      <point x="385" y="349"/>
      <point x="272" y="348" type="curve"/>
    </contour>
    <contour>
      <point x="278" y="364" type="curve"/>
      <point x="297" y="422" type="line"/>
      <point x="297" y="422"/>
      <point x="501" y="357"/>
      <point x="653" y="442" type="curve"/>
      <point x="694" y="365" type="line"/>
      <point x="512" y="266"/>
      <point x="278" y="363"/>
    </contour>
    <component base="kana" xOffset="512"/>
  </outline>
</glyph>
<glyph name="v_rhu" format="1">
  <advance width="874"/>
  <unicode hex="090B"/>
  <outline>
    <contour>
      <point x="449" y="401" type="line"/>
      <point x="570" y="294"/>
      <point x="673" y="361"/>
      <point x="673" y="450" type="curve"/>
      <point x="673" y="444"/>
      <point x="687" y="462"/>
      <point x="681" y="462" type="curve" smooth="yes"/>
      <point x="665" y="462"/>
      <point x="672" y="393"/>
      <point x="669" y="388" type="curve"/>
      <point x="583" y="444" type="line"/>
      <point x="591" y="492"/>
      <point x="637" y="544"/>
      <point x="692" y="544" type="curve"/>
      <point x="725" y="544"/>
      <point x="785" y="522"/>
      <point x="785" y="450" type="curve" smooth="yes"/>
      <point x="785" y="309"/>
      <point x="544" y="167"/>
      <point x="392" y="356" type="curve"/>
    </contour>
    <contour>
      <point x="643" y="505" type="line"/>
      <point x="758" y="422"/>
      <point x="866" y="370"/>
      <point x="866" y="245" type="curve" smooth="yes"/>
      <point x="866" y="87"/>
      <point x="719" y="4"/>
      <point x="568" y="41" type="curve"/>
      <point x="589" y="120" type="line"/>
      <point x="695" y="97"/>
      <point x="776" y="163"/>
      <point x="776" y="238" type="curve"/>
      <point x="776" y="336"/>
      <point x="674" y="380"/>
      <point x="583" y="444" type="curve"/>
    </contour>
    <component base="component_3" xOffset="1" yOffset="-319"/>
    <component base="component_6" xOffset="185"/>
    <component base="component_6" xOffset="-108"/>
    <component base="component_6" xOffset="482"/>
    <component base="l" xOffset="331"/>
    <component base="component_9"/>
  </outline>
</glyph>
<glyph name="v_ee" format="1">
  <advance width="614"/>
  <unicode hex="090F"/>
  <outline>
    <contour>
      <point x="536" y="685" type="line"/>
      <point x="536" y="500" type="line"/>
      <point x="536" y="360"/>
      <point x="490" y="267"/>
      <point x="401" y="197" type="curve"/>
      <point x="333" y="262" type="line"/>
      <point x="396" y="316"/>
      <point x="434" y="391"/>
      <point x="434" y="500" type="curve"/>
      <point x="434" y="685" type="line"/>
    </contour>
    <contour>
      <point x="180" y="685" type="line"/>
      <point x="180" y="476" type="line"/>
      <point x="180" y="253"/>
      <point x="270" y="141"/>
      <point x="426" y="62" type="curve"/>
      <point x="386" y="-34" type="line"/>
      <point x="194" y="59"/>
      <point x="78" y="216"/>
      <point x="78" y="476" type="curve"/>
      <point x="78" y="685" type="line"/>
    </contour>
    <component base="component_6" xOffset="57"/>
    <component base="component_6" xOffset="222"/>
    <component base="component_6" xOffset="-108"/>
  </outline>
</glyph>
<glyph name="dn_ssa" format="1">
  <advance width="600"/>
  <unicode hex="0937"/>
  <outline>
    <contour>
      <point x="118" y="555" type="line"/>
      <point x="169" y="628" type="line"/>
      <point x="485" y="421" type="line"/>
      <point x="434" y="348" type="line"/>
    </contour>
    <component base="c_pa"/>
  </outline>
</glyph>
<glyph name="quoteleft" format="1">
  <advance width="202"/>
  <unicode hex="2018"/>
  <outline>
    <contour>
      <point x="104" y="553" type="line"/>
      <point x="98" y="603"/>
      <point x="117" y="633"/>
      <point x="153" y="654" type="curve"/>
      <point x="131" y="685" type="line"/>
      <point x="86" y="657"/>
      <point x="57" y="621"/>
      <point x="55" y="553" type="curve"/>
      <point x="55" y="438" type="line"/>
      <point x="157" y="438" type="line"/>
      <point x="157" y="553" type="line"/>
    </contour>
  </outline>
</glyph>
<glyph name="quotesinglbase" format="1">
  <advance width="202"/>
  <unicode hex="201A"/>
  <outline>
    <contour>
      <point x="108" y="0" type="line"/>
      <point x="114" y="-50"/>
      <point x="95" y="-80"/>
      <point x="59" y="-101" type="curve"/>
      <point x="81" y="-132" type="line"/>
      <point x="126" y="-104"/>
      <point x="155" y="-68"/>
      <point x="157" y="0" type="curve"/>
      <point x="157" y="115" type="line"/>
      <point x="55" y="115" type="line"/>
      <point x="55" y="0" type="line"/>
    </contour>
  </outline>
</glyph>
<glyph name="quotedblleft" format="1">
  <advance width="365"/>
  <unicode hex="201C"/>
  <outline>
    <contour>
      <point x="104" y="570" type="curve"/>
      <point x="157" y="570" type="line"/>
      <point x="157" y="685" type="line"/>
      <point x="55" y="685" type="line"/>
      <point x="55" y="570" type="line"/>
      <point x="57" y="502"/>
      <point x="86" y="466"/>
      <point x="131" y="438" type="curve"/>
      <point x="153" y="469" type="line"/>
      <point x="117" y="490"/>
      <point x="98" y="520"/>
    </contour>
    <contour>
      <point x="257" y="570" type="curve"/>
      <point x="310" y="570" type="line"/>
      <point x="310" y="685" type="line"/>
      <point x="208" y="685" type="line"/>
      <point x="208" y="570" type="line"/>
      <point x="210" y="502"/>
      <point x="239" y="466"/>
      <point x="284" y="438" type="curve"/>
      <point x="306" y="469" type="line"/>
      <point x="270" y="490"/>
      <point x="251" y="520"/>
    </contour>
  </outline>
</glyph>
<glyph name="component_7" format="1">
  <advance width="863"/>
  <outline>
    <contour>
      <point x="588" y="252" type="line"/>
      <point x="675" y="231"/>
      <point x="720.0" y="291.238095238"/>
      <point x="720" y="355" type="curve"/>
      <point x="720" y="414"/>
      <point x="680.0" y="458.0"/>
      <point x="619" y="458" type="curve"/>
      <point x="566" y="458"/>
      <point x="509.0" y="419.0"/>
      <point x="509" y="349" type="curve"/>
      <point x="418" y="356" type="line"/>
      <point x="418" y="480"/>
      <point x="524" y="540"/>
      <point x="618" y="540" type="curve"/>
      <point x="724.0" y="540.0"/>
      <point x="815" y="479"/>
      <point x="815" y="355" type="curve"/>
      <point x="815.0" y="215.5"/>
      <point x="705" y="126"/>
      <point x="554" y="169" type="curve"/>
    </contour>
  </outline>
</glyph>
<glyph name="component_9" format="1">
  <advance width="630"/>
  <outline>
    <contour>
      <point x="457" y="315" type="line"/>
      <point x="141" y="108" type="line"/>
      <point x="90" y="181" type="line"/>
      <point x="406" y="388" type="line"/>
    </contour>
  </outline>
</glyph>
<glyph name="dn_bha.alt1" format="1">
  <advance width="630"/>
  <outline>
    <contour>
      <point x="105" y="312" type="line"/>
      <point x="105" y="617" type="line" smooth="yes"/>
      <point x="105" y="637"/>
      <point x="91" y="651"/>
      <point x="70" y="651" type="curve" smooth="yes"/>
      <point x="49" y="651"/>
      <point x="31" y="636"/>
      <point x="31" y="617" type="curve"/>
      <point x="-51" y="617" type="line"/>
      <point x="-51" y="676"/>
      <point x="-3" y="733"/>
      <point x="70" y="733" type="curve" smooth="yes"/>
      <point x="143" y="733"/>
      <point x="187" y="685"/>
      <point x="187" y="617" type="curve" smooth="yes"/>
      <point x="187" y="312" type="line"/>
    </contour>
    <component base="component_10"/>
    <component base="kana" xOffset="267"/>
  </outline>
</glyph>
<glyph name="dn_ga.e" format="1">
  <advance width="551"/>
  <outline>
    <contour>
      <point x="98" y="326" type="line"/>
      <point x="98" y="670" type="line"/>
      <point x="192" y="670" type="line"/>
      <point x="192" y="326" type="line"/>
    </contour>
    <contour>
      <point x="192" y="324" type="line"/>
      <point x="113" y="284" type="line"/>
      <point x="113" y="284"/>
      <point x="96" y="277"/>
      <point x="96" y="287" type="curve" smooth="yes"/>
      <point x="96" y="293"/>
      <point x="115" y="294"/>
      <point x="109" y="294" type="curve"/>
      <point x="125" y="294"/>
      <point x="110" y="316"/>
      <point x="110" y="324" type="curve"/>
      <point x="192" y="324" type="line"/>
      <point x="192" y="234"/>
      <point x="160" y="203"/>
      <point x="137" y="203" type="curve"/>
      <point x="71" y="203"/>
      <point x="10" y="233"/>
      <point x="10" y="284" type="curve"/>
      <point x="10" y="341"/>
      <point x="66" y="366"/>
      <point x="113" y="366" type="curve" smooth="yes"/>
      <point x="192" y="366" type="line"/>
    </contour>
    <component base="component_2" xOffset="-46"/>
    <component base="kana" xOffset="267"/>
    <component base="component_6" xOffset="-108"/>
  </outline>
</glyph>
